{"title":"Hatchet III 2013 (TRUEFRENCH) DVDRip_XviD-UTT {AryaN_L33T} [Litt","uid":9501786,"size":735102421,"categoryP":"video","categoryS":"movies","magnet":"?xt=urn:btih:63aeb9e95fd1b470f7562d4a062aec01053bec38&amp;dn=Hatchet+III+2013+%28TRUEFRENCH%29+DVDRip_XviD-UTT+%7BAryaN_L33T%7D+%5BLitt&amp;tr=udp%3A%2F%2Ftracker.openbittorrent.com%3A80&amp;tr=udp%3A%2F%2Fopen.demonii.com%3A1337&amp;tr=udp%3A%2F%2Ftracker.coppersurfer.tk%3A6969&amp;tr=udp%3A%2F%2Fexodus.desync.com%3A6969","seeders":1,"leechers":0,"uploader":"SirHates","files":5,"time":1390240979,"description":"Movie Name:Hatchet III TRUEFRENCH DVDRip XviD(2013)\n\nGenre:Horror\n\nFormat:AVI\n\nOrigin:American\n\nSize:700 mib\n\nQuality:DVDRip\n\nEncoding:XviD\n\nLanguage:True French\n\nYear Of Release:2013\n\nIMDB Link:http://www.imdb.com/title/tt1870419/\n\n\n\nAccused of being responsible for the massacre of the first two films, Marybeth is stopped. Meanwhile, a team of rescuers to the scene of carnage, the Honey Island swamp, haunted by Victor Crowley decades. Marybeth tries to see through the secret of the curse Vaudoo to prove his innocence.\n\n\n\n\nMedia Info\n\n[color=blue]Video\nID : 0\nFormat : MPEG-4 Visual\nFormat profile : Advanced Simple@L5\nFormat settings, BVOP : 1\nFormat settings, QPel : No\nFormat settings, GMC : No warppoints\nFormat settings, Matrix : Default (MPEG)\nMuxing mode : Packed bitstream\nCodec ID : XVID\nCodec ID/Hint : XviD\nDuration : 1h 18mn\nBit rate : 1 114 Kbps\nWidth : 624 pixels\nHeight : 256 pixels\nDisplay aspect ratio : 2.40:1\nFrame rate : 25.000 fps\nColor space : YUV\nChroma subsampling : 4:2:0\nBit depth : 8 bits\nScan type : Progressive\nCompression mode : Lossy\nBits/(Pixel*Frame) : 0.279\nStream size : 623 MiB (89%)\nWriting library : XviD 1.2.1 (UTC 2008-12-04)\n\nAudio\nID : 1\nFormat : MPEG Audio\nFormat version : Version 1\nFormat profile : Layer 3\nMode : Joint stereo\nMode extension : MS Stereo\nCodec ID : 55\nCodec ID/Hint : MP3\nDuration : 1h 18mn\nBit rate mode : Constant\nBit rate : 128 Kbps\nChannel(s) : 2 channels\nSampling rate : 48.0 KHz\nCompression mode : Lossy\nStream size : 71.6 MiB (10%)\nAlignment : Aligned on interleaves\nInterleave, duration : 40 ms (1.00 video frame)\nInterleave, preload duration : 504 ms\nWriting library : LAME3.97 \nEncoding settings : -m j -V 4 -q 2 -lowpass 17 -b 128\n\n\nVisit us at - www.lfrg.co.vu (currently under construction, but feel free to visit, and make sure you leave feedback for us) \n\n\nIf you download our uploads, please make sure you seed them till atleast 1:1 ratio. We all work very hard to get this stuff. We'll all greatly appreciate some help.\n\n","torrent":{"xt":"urn:btih:63aeb9e95fd1b470f7562d4a062aec01053bec38","amp;dn":"Hatchet+III+2013+%28TRUEFRENCH%29+DVDRip_XviD-UTT+%7BAryaN_L33T%7D+%5BLitt","amp;tr":["udp%3A%2F%2Ftracker.openbittorrent.com%3A80","udp%3A%2F%2Fopen.demonii.com%3A1337","udp%3A%2F%2Ftracker.coppersurfer.tk%3A6969","udp%3A%2F%2Fexodus.desync.com%3A6969"],"infoHash":"63aeb9e95fd1b470f7562d4a062aec01053bec38","infoHashBuffer":{"type":"Buffer","data":[99,174,185,233,95,209,180,112,247,86,45,74,6,42,236,1,5,59,236,56]},"announce":[],"urlList":[]}}